<?xml version="1.0" encoding="iso-8859-1"?>
<!-- Generator: Adobe Illustrator 19.0.0, SVG Export Plug-In . SVG Version: 6.00 Build 0)  -->
<svg version="1.1" id="Layer_1" xmlns="http://www.w3.org/2000/svg" xmlns:xlink="http://www.w3.org/1999/xlink" x="0px" y="0px"
	 viewBox="0 0 496 496" style="enable-background:new 0 0 496 496;" xml:space="preserve">
<path style="fill:#EFE7E4;" d="M179.928,32.112C84.552,35.504,10.344,116.784,10.344,212.216V304c0,65.592,39.512,121.896,96,146.6
	V488h128v-25.44c45.384-7.632,80-47.008,80-94.56v-48h32c8.84,0,16-7.16,16-16v-96C362.344,108.664,280.056,28.552,179.928,32.112z"
	/>
<path style="fill:#D8D1D0;" d="M179.928,32.112c-3.28,0.12-6.536,0.344-9.76,0.648c89.776,8.008,160.176,83.376,160.176,175.24v96
	c0,8.84-7.16,16-16,16h32c8.84,0,16-7.16,16-16v-96C362.344,108.664,280.056,28.552,179.928,32.112z"/>
<path style="fill:#684621;" d="M242.344,496h-144v-40.264c-58.496-27.768-96-86.76-96-151.736v-91.784
	C2.344,111.976,81.88,27.6,179.64,24.128l0,0c50.448-1.944,98.208,16.48,134.464,51.464c36.264,34.992,56.24,82.016,56.24,132.408
	v96c0,13.232-10.768,24-24,24h-24v40c0,48.632-33.256,90.128-80,101.112V496z M114.344,480h112v-24.2l6.672-1.128
	c42.488-7.144,73.328-43.592,73.328-86.672v-56h40c4.408,0,8-3.584,8-8v-96c0-46.008-18.232-88.944-51.344-120.896
	c-33.104-31.944-76.712-48.576-122.784-46.992l0,0C90.96,43.288,18.344,120.496,18.344,212.216V304
	c0,60.376,35.8,115.04,91.2,139.264l4.8,2.096V480z"/>
<path style="fill:#FFCB57;" d="M258.344,80c0-39.768-32.232-72-72-72s-72,32.232-72,72c0,21.296,9.304,40.376,24,53.56V192h96
	v-58.44C249.04,120.376,258.344,101.296,258.344,80z"/>
<path style="fill:#F2BE55;" d="M186.344,8c-4.096,0-8.088,0.424-12,1.08c34.04,5.72,60,35.256,60,70.92
	c0,21.296-9.304,40.376-24,53.56V192h24v-58.44c14.696-13.184,24-32.264,24-53.56C258.344,40.232,226.112,8,186.344,8z"/>
<g>
	<path style="fill:#684621;" d="M242.344,200h-112v-62.984c-15.296-15.024-24-35.6-24-57.016c0-44.112,35.888-80,80-80
		s80,35.888,80,80c0,21.416-8.704,41.992-24,57.016V200z M146.344,184h80v-54.016l2.664-2.384
		c13.56-12.16,21.336-29.512,21.336-47.6c0-35.288-28.712-64-64-64s-64,28.712-64,64c0,18.088,7.776,35.44,21.336,47.6l2.664,2.384
		V184z"/>
	<rect x="114.344" y="152" style="fill:#684621;" width="144" height="16"/>
</g>
<g>
	<circle style="fill:#EFE7E4;" cx="186.344" cy="80" r="24"/>
	<path style="fill:#EFE7E4;" d="M146.344,80h-16c0-30.872,25.12-56,56-56v16C164.288,40,146.344,57.944,146.344,80z"/>
</g>
<g>
	<path style="fill:#684621;" d="M186.344,112c-17.648,0-32-14.352-32-32s14.352-32,32-32s32,14.352,32,32S203.992,112,186.344,112z
		 M186.344,64c-8.824,0-16,7.176-16,16s7.176,16,16,16s16-7.176,16-16S195.168,64,186.344,64z"/>
	<rect x="178.344" y="104" style="fill:#684621;" width="16" height="56"/>
</g>
<path style="fill:#EFE7E4;" d="M274.344,232c0,0,48,48,104,48s104-48,104-48s-48-48-104-48S274.344,232,274.344,232z"/>
<path style="fill:#684621;" d="M378.344,288c-58.64,0-107.6-48.288-109.656-50.344L263.032,232l5.656-5.656
	C270.744,224.288,319.704,176,378.344,176s107.6,48.288,109.656,50.344l5.656,5.656L488,237.656
	C485.944,239.712,436.984,288,378.344,288z M286.264,231.992C300.592,244.216,337.632,272,378.344,272
	c40.824,0,77.784-27.768,92.08-39.992C456.096,219.784,419.056,192,378.344,192C337.52,192,300.56,219.768,286.264,231.992z"/>
<circle style="fill:#66ADDD;" cx="378.344" cy="232" r="48"/>
<path style="fill:#5B9DC1;" d="M378.344,184c-5.616,0-10.992,1.016-16,2.792c18.632,6.6,32,24.32,32,45.208
	s-13.368,38.616-32,45.208c5.008,1.776,10.384,2.792,16,2.792c26.512,0,48-21.488,48-48S404.856,184,378.344,184z"/>
<path style="fill:#684621;" d="M378.344,288c-30.88,0-56-25.128-56-56s25.12-56,56-56s56,25.128,56,56S409.224,288,378.344,288z
	 M378.344,192c-22.056,0-40,17.944-40,40s17.944,40,40,40s40-17.944,40-40S400.4,192,378.344,192z"/>
<g>
</g>
<g>
</g>
<g>
</g>
<g>
</g>
<g>
</g>
<g>
</g>
<g>
</g>
<g>
</g>
<g>
</g>
<g>
</g>
<g>
</g>
<g>
</g>
<g>
</g>
<g>
</g>
<g>
</g>
</svg>
