<?xml version="1.0" encoding="iso-8859-1"?>
<!-- Generator: Adobe Illustrator 19.0.0, SVG Export Plug-In . SVG Version: 6.00 Build 0)  -->
<svg version="1.1" id="Layer_1" xmlns="http://www.w3.org/2000/svg" xmlns:xlink="http://www.w3.org/1999/xlink" x="0px" y="0px"
	 viewBox="0 0 496 496" style="enable-background:new 0 0 496 496;" xml:space="preserve">
<path style="fill:#A8A8A8;" d="M280,488H40c-17.672,0-32-14.328-32-32V40C8,22.328,22.328,8,40,8h240c17.672,0,32,14.328,32,32v416
	C312,473.672,297.672,488,280,488z"/>
<rect x="8" y="56" style="fill:#66ADDD;" width="304" height="368"/>
<path style="fill:#9B9B9B;" d="M280,8h-8v480h8c17.672,0,32-14.328,32-32V40C312,22.328,297.672,8,280,8z"/>
<rect x="272" y="56" style="fill:#5B9DC1;" width="40" height="368"/>
<g>
	<path style="fill:#684621;" d="M280,496H40c-22.056,0-40-17.944-40-40V40C0,17.944,17.944,0,40,0h240c22.056,0,40,17.944,40,40v416
		C320,478.056,302.056,496,280,496z M40,16c-13.232,0-24,10.768-24,24v416c0,13.232,10.768,24,24,24h240c13.232,0,24-10.768,24-24
		V40c0-13.232-10.768-24-24-24H40z"/>
	<rect x="120" y="448" style="fill:#684621;" width="80" height="16"/>
	<rect x="8" y="416" style="fill:#684621;" width="304" height="16"/>
	<rect x="8" y="48" style="fill:#684621;" width="304" height="16"/>
</g>
<rect x="376" y="176" style="fill:#EFE7E4;" width="112" height="128"/>
<rect x="456" y="176" style="fill:#D8D1D0;" width="32" height="128"/>
<polygon style="fill:#FFCB57;" points="344,176 296,152 192,232 192,248 296,328 344,304 376,304 376,176 "/>
<rect x="344" y="176" style="fill:#F2BE55;" width="32" height="128"/>
<g>
	<polygon style="fill:#684621;" points="295.096,337.4 184,251.936 184,228.064 295.096,142.6 345.888,168 376,168 376,184 
		342.112,184 296.904,161.4 200,235.936 200,244.064 296.904,318.6 342.112,296 376,296 376,312 345.888,312 	"/>
	<polygon style="fill:#684621;" points="496,312 368,312 368,280 384,280 384,296 480,296 480,184 384,184 384,264 368,264 368,168 
		496,168 	"/>
	<rect x="192" y="232" style="fill:#684621;" width="64" height="16"/>
</g>
<circle style="fill:#EFE7E4;" cx="280" cy="240" r="24"/>
<g>
	<circle style="fill:#FFCB57;" cx="120" cy="240" r="24"/>
	<circle style="fill:#FFCB57;" cx="120" cy="112" r="24"/>
	<circle style="fill:#FFCB57;" cx="120" cy="368" r="24"/>
	<circle style="fill:#FFCB57;" cx="240" cy="112" r="24"/>
	<circle style="fill:#FFCB57;" cx="240" cy="368" r="24"/>
</g>
<g>
	<path style="fill:#684621;" d="M280,272c-17.648,0-32-14.352-32-32s14.352-32,32-32s32,14.352,32,32S297.648,272,280,272z M280,224
		c-8.824,0-16,7.176-16,16s7.176,16,16,16s16-7.176,16-16S288.824,224,280,224z"/>
	<path style="fill:#684621;" d="M120,272c-17.648,0-32-14.352-32-32s14.352-32,32-32s32,14.352,32,32S137.648,272,120,272z M120,224
		c-8.824,0-16,7.176-16,16s7.176,16,16,16s16-7.176,16-16S128.824,224,120,224z"/>
	<path style="fill:#684621;" d="M120,144c-17.648,0-32-14.352-32-32s14.352-32,32-32s32,14.352,32,32S137.648,144,120,144z M120,96
		c-8.824,0-16,7.176-16,16s7.176,16,16,16s16-7.176,16-16S128.824,96,120,96z"/>
	<path style="fill:#684621;" d="M120,400c-17.648,0-32-14.352-32-32s14.352-32,32-32s32,14.352,32,32S137.648,400,120,400z M120,352
		c-8.824,0-16,7.176-16,16s7.176,16,16,16s16-7.176,16-16S128.824,352,120,352z"/>
	<path style="fill:#684621;" d="M240,144c-17.648,0-32-14.352-32-32s14.352-32,32-32s32,14.352,32,32S257.648,144,240,144z M240,96
		c-8.824,0-16,7.176-16,16s7.176,16,16,16s16-7.176,16-16S248.824,96,240,96z"/>
	<path style="fill:#684621;" d="M240,400c-17.648,0-32-14.352-32-32s14.352-32,32-32s32,14.352,32,32S257.648,400,240,400z M240,352
		c-8.824,0-16,7.176-16,16s7.176,16,16,16s16-7.176,16-16S248.824,352,240,352z"/>
	<rect x="112" y="136" style="fill:#684621;" width="16" height="80"/>
	<rect x="112" y="264" style="fill:#684621;" width="16" height="80"/>
	<path style="fill:#684621;" d="M130.136,217.712l-15.72-2.96c9.696-51.472,48.792-93.2,99.584-106.304l4,15.496
		C173.176,135.504,138.696,172.312,130.136,217.712z"/>
	<path style="fill:#684621;" d="M214,371.552c-50.8-13.104-89.888-54.832-99.584-106.304l15.72-2.96
		c8.56,45.4,43.048,82.208,87.864,93.768L214,371.552z"/>
</g>
<g>
	<rect x="32" y="80" style="fill:#EFE7E4;" width="16" height="160"/>
	<rect x="32" y="256" style="fill:#EFE7E4;" width="16" height="16"/>
</g>
<rect x="400" y="176" style="fill:#684621;" width="16" height="128"/>
<g>
</g>
<g>
</g>
<g>
</g>
<g>
</g>
<g>
</g>
<g>
</g>
<g>
</g>
<g>
</g>
<g>
</g>
<g>
</g>
<g>
</g>
<g>
</g>
<g>
</g>
<g>
</g>
<g>
</g>
</svg>
