<?xml version="1.0" encoding="iso-8859-1"?>
<!-- Generator: Adobe Illustrator 19.0.0, SVG Export Plug-In . SVG Version: 6.00 Build 0)  -->
<svg version="1.1" id="Layer_1" xmlns="http://www.w3.org/2000/svg" xmlns:xlink="http://www.w3.org/1999/xlink" x="0px" y="0px"
	 viewBox="0 0 496 496" style="enable-background:new 0 0 496 496;" xml:space="preserve">
<path style="fill:#66ADDD;" d="M160,272L21.256,410.744c-8.488,8.488-13.256,20-13.256,32l0,0C8,467.736,28.264,488,53.256,488l0,0
	c12,0,23.512-4.768,32-13.256L224,336L160,272z"/>
<polygon style="fill:#5B9DC1;" points="224,336 160,272 160,400 "/>
<g>
	<path style="fill:#684621;" d="M53.256,496C23.888,496,0,472.112,0,442.744c0-14.224,5.536-27.592,15.6-37.656l138.744-138.744
		l11.312,11.312L26.912,416.4C19.872,423.44,16,432.792,16,442.744C16,463.288,32.712,480,53.256,480
		c9.952,0,19.304-3.872,26.344-10.912l138.744-138.744l11.312,11.312L90.912,480.4C80.848,490.464,67.488,496,53.256,496z"/>
	
		<rect x="152.032" y="256.804" transform="matrix(-0.7071 0.7071 -0.7071 -0.7071 510.7793 460.4258)" style="fill:#684621;" width="16" height="158.39"/>
</g>
<path style="fill:#EFE7E4;" d="M312,8c-97.2,0-176,78.8-176,176s78.8,176,176,176s176-78.8,176-176S409.2,8,312,8z M312,328
	c-79.528,0-144-64.472-144-144S232.472,40,312,40s144,64.472,144,144S391.528,328,312,328z"/>
<path style="fill:#D8D1D0;" d="M312,8c-5.4,0-10.728,0.28-16,0.76C385.696,16.848,456,92.192,456,184s-70.304,167.152-160,175.24
	c5.272,0.48,10.6,0.76,16,0.76c97.2,0,176-78.8,176-176S409.2,8,312,8z"/>
<g>
	<path style="fill:#684621;" d="M312,368c-101.464,0-184-82.536-184-184S210.536,0,312,0s184,82.536,184,184S413.464,368,312,368z
		 M312,16c-92.632,0-168,75.368-168,168s75.368,168,168,168s168-75.368,168-168S404.632,16,312,16z"/>
	<path style="fill:#684621;" d="M312,336c-83.816,0-152-68.184-152-152S228.184,32,312,32s152,68.184,152,152S395.816,336,312,336z
		 M312,48c-74.992,0-136,61.008-136,136s61.008,136,136,136s136-61.008,136-136S386.992,48,312,48z"/>
</g>
<rect x="224" y="104" style="fill:#FFCB57;" width="176" height="160"/>
<rect x="360" y="104" style="fill:#F2BE55;" width="40" height="160"/>
<g>
	<path style="fill:#684621;" d="M408,272H216V96h192V272z M232,256h160V112H232V256z"/>
	<rect x="304" y="104" style="fill:#684621;" width="16" height="160"/>
	<rect x="248" y="128" style="fill:#684621;" width="40" height="16"/>
	<rect x="248" y="160" style="fill:#684621;" width="40" height="16"/>
	<rect x="248" y="192" style="fill:#684621;" width="40" height="16"/>
	<rect x="248" y="224" style="fill:#684621;" width="40" height="16"/>
	<rect x="336" y="128" style="fill:#684621;" width="40" height="16"/>
	<rect x="336" y="160" style="fill:#684621;" width="40" height="16"/>
	<rect x="336" y="192" style="fill:#684621;" width="40" height="16"/>
	<rect x="336" y="224" style="fill:#684621;" width="40" height="16"/>
</g>
<g>
	
		<rect x="36.688" y="407.997" transform="matrix(-0.7071 0.7071 -0.7071 -0.7071 376.0953 676.2098)" style="fill:#EFE7E4;" width="22.624" height="16"/>
	
		<rect x="58.744" y="352.002" transform="matrix(-0.7071 0.7071 -0.7071 -0.7071 432.0986 541.022)" style="fill:#EFE7E4;" width="90.511" height="16"/>
</g>
<g>
</g>
<g>
</g>
<g>
</g>
<g>
</g>
<g>
</g>
<g>
</g>
<g>
</g>
<g>
</g>
<g>
</g>
<g>
</g>
<g>
</g>
<g>
</g>
<g>
</g>
<g>
</g>
<g>
</g>
</svg>
